PathFileType	4	(X/Y/Z)	/Users/itak/Documents/Research/Walk-IL/dataset/trc/00554_00009.trc
DataRate	CameraRate	NumFrames	NumMarkers	Units	OrigDataRate	OrigDataStartFrame	OrigNumFrames
100.000000	100.000000	4	53	mm	100.000000	301	482
Frame#	Time	RPSI			LPSI			L3			STRN			T10			C7			CLAV			RBAK			LBAK			LSHO			LUPA			LAEL			LAOL			LWTS			LWPS			LFRA			LIFD			LHPS			LHTS			RSHO			RUPA			RAEL			RAOL			RWTS			RWPS			RFRA			RIFD			RHTS			RHPS			RBHD			LFHD			RFHD			LBHD			RHIP			RASI			LASI			LKNE			LTHI			LANK			LTIP			LTOE			LMT1			LMT5			LHEE			RKNE			RTHI			RANK			RTIP			RTOE			RMT1			RMT5			RHEE			LHIP			
		X1	Y1	Z1	X2	Y2	Z2	X3	Y3	Z3	X4	Y4	Z4	X5	Y5	Z5	X6	Y6	Z6	X7	Y7	Z7	X8	Y8	Z8	X9	Y9	Z9	X10	Y10	Z10	X11	Y11	Z11	X12	Y12	Z12	X13	Y13	Z13	X14	Y14	Z14	X15	Y15	Z15	X16	Y16	Z16	X17	Y17	Z17	X18	Y18	Z18	X19	Y19	Z19	X20	Y20	Z20	X21	Y21	Z21	X22	Y22	Z22	X23	Y23	Z23	X24	Y24	Z24	X25	Y25	Z25	X26	Y26	Z26	X27	Y27	Z27	X28	Y28	Z28	X29	Y29	Z29	X30	Y30	Z30	X31	Y31	Z31	X32	Y32	Z32	X33	Y33	Z33	X34	Y34	Z34	X35	Y35	Z35	X36	Y36	Z36	X37	Y37	Z37	X38	Y38	Z38	X39	Y39	Z39	X40	Y40	Z40	X41	Y41	Z41	X42	Y42	Z42	X43	Y43	Z43	X44	Y44	Z44	X45	Y45	Z45	X46	Y46	Z46	X47	Y47	Z47	X48	Y48	Z48	X49	Y49	Z49	X50	Y50	Z50	X51	Y51	Z51	X52	Y52	Z52	X53	Y53	Z53	

302	3.01	1214.53125	970.055908203125	552.4200439453125	1236.8935546875	966.0682373046875	421.671142578125	1223.11962890625	1075.527709960938	482.5812072753906	1451.086547851562	1274.74658203125	499.0848388671875	1213.5361328125	1199.720825195312	484.56396484375	1249.969116210938	1474.747680664062	508.3114013671875	1425.799682617188	1383.358642578125	498.8106994628906	1177.559326171875	1347.203369140625	586.4005126953125	1220.600830078125	1422.995361328125	419.7092590332031	1314.569213867188	1457.15478515625	340.1578063964844	1278.939819335938	1345.591186523438	250.3251800537109	1248.830322265625	1150.091552734375	212.3114166259766	1168.077758789062	1123.044921875	267.6670227050781	1448.592529296875	1005.654235839844	263.182373046875	1425.570922851562	952.7489624023438	197.8668060302734	1303.99560546875	1088.01318359375	202.1772613525391	1540.35205078125	871.1036987304688	280.610595703125	1469.809326171875	912.5239868164062	208.8708038330078	1508.34228515625	956.749267578125	245.5632934570312	1299.59326171875	1440.913940429688	658.7064208984375	1274.96142578125	1382.451416015625	725.9993286132812	1264.174926757812	1112.667114257812	811.3822021484375	1215.438598632812	1080.3857421875	787.6322021484375	1472.613159179688	971.8176879882812	795.9005737304688	1434.745239257812	928.7344360351562	854.0669555664062	1290.681518554688	1064.27783203125	823.3148193359375	1570.194946289062	838.0635375976562	805.9267578125	1542.337036132812	914.95068359375	824.74169921875	1489.731201171875	877.7747802734375	862.4435424804688	1372.679809570312	1660.212036132812	584.0982055664062	1528.505737304688	1641.733276367188	446.7517700195312	1511.20068359375	1639.861938476562	591.4083251953125	1398.055053710938	1658.78857421875	420.8943176269531	1344.948852539062	921.822265625	686.2977294921875	1414.778564453125	961.2281494140625	649.0933227539062	1456.884521484375	949.78466796875	378.3577575683594	1611.669921875	522.2506103515625	408.501953125	1534.798461914062	667.1256713867188	357.4626159667969	1622.644409179688	35.59650039672852	418.3162231445312	1607.813110351562	263.0768127441406	405.1993713378906	1807.369140625	47.78379058837891	531.381103515625	1728.9736328125	53.61526870727539	544.1244506835938	1742.75244140625	34.65739440917969	438.78857421875	1543.241088867188	40.92693328857422	451.325927734375	1441.699584960938	483.1609191894531	665.1690063476562	1393.075927734375	774.4076538085938	699.5586547851562	1185.3818359375	76.85157775878906	589.4448852539062	1400.07177734375	339.4928588867188	642.4271850585938	1404.7939453125	39.1096076965332	607.2164306640625	1352.930419921875	48.08711242675781	550.4735717773438	1304.52490234375	45.31044006347656	641.7388916015625	1145.241577148438	78.02489471435547	522.5630493164062	1392.598876953125	907.5584106445312	318.8113708496094	
303	3.02	1225.262573242188	969.111328125	551.3432006835938	1248.39599609375	965.3638305664062	420.5817565917969	1234.446655273438	1074.140380859375	481.48876953125	1460.70068359375	1274.695068359375	499.6414794921875	1223.912719726562	1198.312133789062	482.8358154296875	1258.066650390625	1473.734619140625	506.8640441894531	1434.648315429688	1383.228759765625	499.0960388183594	1185.851196289062	1345.4208984375	584.1345825195312	1229.788208007812	1421.615112304688	417.9182434082031	1324.2734375	1456.255493164062	339.3174743652344	1290.581298828125	1344.35595703125	249.0796203613281	1262.25732421875	1148.976684570312	209.9311370849609	1180.893310546875	1121.316284179688	264.1365661621094	1461.664184570312	1005.005554199219	263.3683776855469	1439.857543945312	952.399169921875	197.4334869384766	1317.886352539062	1087.161987304688	200.3535461425781	1553.580200195312	870.6325073242188	281.5859069824219	1484.048706054688	912.2516479492188	208.9385986328125	1521.802734375	956.0633544921875	246.614013671875	1306.486328125	1440.142211914062	657.9240112304688	1281.606567382812	1381.345092773438	724.9347534179688	1272.56396484375	1111.417724609375	810.4099731445312	1224.40283203125	1078.7978515625	786.3204345703125	1482.323974609375	972.3523559570312	795.9551391601562	1444.583374023438	929.017822265625	853.95556640625	1299.45068359375	1063.254272460938	822.434326171875	1580.873168945312	839.2348022460938	806.3796997070312	1552.35205078125	916.0311279296875	825.0205688476562	1499.886962890625	878.5224609375	862.689208984375	1380.416015625	1660.11083984375	583.8690185546875	1536.732543945312	1641.814575195312	446.945556640625	1518.909912109375	1639.782592773438	591.6240844726562	1406.41259765625	1658.903442382812	420.56884765625	1354.120727539062	920.4575805664062	686.0518798828125	1424.984497070312	960.2138671875	649.6151123046875	1468.845703125	948.933349609375	379.0594482421875	1619.964111328125	519.9987182617188	410.77099609375	1544.904052734375	665.562744140625	360.0166015625	1622.0556640625	35.46818542480469	419.3229064941406	1611.90478515625	261.0281982421875	408.0368957519531	1807.526000976562	44.16725158691406	533.7581176757812	1728.598510742188	50.71895599365234	545.9522705078125	1742.42578125	34.59577941894531	439.39404296875	1542.72607421875	39.712158203125	452.5453491210938	1449.09375	481.7838134765625	665.7432861328125	1402.269653320312	773.0901489257812	699.309326171875	1186.309692382812	79.57082366943359	590.172119140625	1405.254028320312	339.0474243164062	643.2808227539062	1404.80419921875	39.14742279052734	607.2406616210938	1353.277465820312	48.76628112792969	550.5541381835938	1305.1923828125	45.96672058105469	641.8969116210938	1146.214965820312	81.65839385986328	523.2288818359375	1405.23486328125	907.0023803710938	319.1830139160156	
304	3.03	1235.50439453125	967.8825073242188	550.3914794921875	1259.340209960938	964.5107421875	419.5852661132812	1245.4892578125	1072.619262695312	480.5394897460938	1470.116088867188	1274.318359375	500.2648620605469	1234.066162109375	1196.774536132812	481.1294250488281	1266.150634765625	1472.657470703125	505.4402160644531	1443.400268554688	1382.806518554688	499.4607543945312	1194.020629882812	1343.530883789062	581.8580932617188	1238.878173828125	1420.22412109375	416.0791931152344	1333.943725585938	1455.165649414062	338.4737854003906	1302.368408203125	1342.75830078125	247.9629516601562	1276.257202148438	1147.545043945312	207.5071258544922	1194.20947265625	1119.13818359375	260.3702087402344	1475.150756835938	1004.005310058594	263.81005859375	1454.779174804688	951.8092041015625	197.1042938232422	1332.392333984375	1086.003295898438	198.5655212402344	1567.24853515625	869.8920288085938	282.8503723144531	1498.914916992188	911.7422485351562	209.1858520507812	1535.741455078125	955.0418701171875	248.0309906005859	1313.325439453125	1439.193725585938	657.2439575195312	1288.190673828125	1380.004516601562	723.927001953125	1280.762573242188	1109.8701171875	809.32666015625	1233.159912109375	1076.942138671875	784.8545532226562	1491.6357421875	972.3853149414062	796.0037231445312	1453.919921875	928.8153686523438	853.8098754882812	1307.956787109375	1061.8857421875	821.44873046875	1591.051147460938	839.8477783203125	806.9697265625	1561.888305664062	916.5717163085938	825.3861083984375	1509.529418945312	878.80322265625	863.0120239257812	1388.131469726562	1659.918579101562	583.5994262695312	1544.9521484375	1641.756103515625	447.1234130859375	1526.610229492188	1639.586791992188	591.793701171875	1414.780029296875	1658.927978515625	420.1924438476562	1361.327758789062	918.5775756835938	686.4274291992188	1434.852661132812	958.925537109375	650.0996704101562	1480.30224609375	947.8858642578125	379.6453552246094	1628.25146484375	517.97802734375	412.8908386230469	1554.640258789062	663.9959716796875	362.2665710449219	1621.237670898438	35.49697494506836	420.1234130859375	1615.897094726562	259.3091430664062	410.5653991699219	1807.424560546875	41.4124755859375	535.5631103515625	1728.02490234375	48.53638076782227	547.3648681640625	1741.818603515625	34.67554473876953	439.766845703125	1541.974243164062	38.76726531982422	453.5498962402344	1456.760620117188	480.3506774902344	666.3101196289062	1411.333129882812	771.55712890625	698.978515625	1187.366088867188	82.64955902099609	591.0629272460938	1410.67333984375	338.6420288085938	644.1385498046875	1404.8076171875	39.15816879272461	607.2608032226562	1353.637084960938	49.50943756103516	550.6241455078125	1305.927368164062	46.79866027832031	642.0791625976562	1147.281982421875	85.67230987548828	524.0889892578125	1417.42236328125	906.3939819335938	319.4347534179688	
305	3.04	1245.197631835938	966.5211181640625	549.5845947265625	1269.684448242188	963.6754150390625	418.7215881347656	1256.1337890625	1071.159301757812	479.7933349609375	1479.290405273438	1273.75146484375	500.9552917480469	1243.876220703125	1195.283325195312	479.5429077148438	1274.229858398438	1471.645263671875	504.1079711914062	1452.031372070312	1382.226806640625	499.9049072265625	1202.067626953125	1341.718627929688	579.6760864257812	1247.83349609375	1418.975341796875	414.2660217285156	1343.53369140625	1454.041870117188	337.6766357421875	1314.214111328125	1340.9951171875	247.0200805664062	1290.795654296875	1145.954223632812	205.1355743408203	1208.007202148438	1116.675903320312	256.478271484375	1488.986206054688	1002.734924316406	264.5206909179688	1470.256103515625	951.097412109375	196.8848114013672	1347.454956054688	1084.67919921875	196.8997192382812	1581.2431640625	868.9281616210938	284.3521728515625	1514.314697265625	911.0914916992188	209.5955963134766	1550.066284179688	953.8115234375	249.7759552001953	1320.159790039062	1438.196899414062	656.6885986328125	1294.783325195312	1378.573486328125	723.0120239257812	1288.789184570312	1108.160034179688	808.1144409179688	1241.696655273438	1074.97119140625	783.22314453125	1500.509643554688	971.972900390625	796.0198364257812	1462.6953125	928.18359375	853.5955810546875	1316.197875976562	1060.29248046875	820.33935546875	1600.653442382812	839.939208984375	807.6951293945312	1570.890747070312	916.6017456054688	825.8331909179688	1518.575927734375	878.65283203125	863.3621215820312	1395.842163085938	1659.723510742188	583.29931640625	1553.16748046875	1641.617919921875	447.2973327636719	1534.320556640625	1639.353515625	591.9239501953125	1423.153198242188	1658.923950195312	419.7939147949219	1367.067138671875	916.4251098632812	687.245849609375	1444.3193359375	957.5094604492188	650.5364990234375	1491.182495117188	946.8284912109375	380.1030883789062	1636.407958984375	516.2592163085938	414.7674255371094	1563.963989257812	662.587646484375	364.0995483398438	1620.45458984375	35.60876083374023	420.7038269042969	1619.8203125	257.9639587402344	412.6288146972656	1807.250244140625	39.49916839599609	536.8450317382812	1727.46533203125	47.03188705444336	548.3807983398438	1741.190307617188	34.81924438476562	439.9707336425781	1541.248291015625	38.109619140625	454.2936706542969	1464.677856445312	478.9781799316406	666.8253173828125	1420.213012695312	769.9465942382812	698.5714111328125	1188.610961914062	86.15395355224609	592.0923461914062	1416.330932617188	338.3598022460938	644.929931640625	1404.854858398438	39.13579177856445	607.274169921875	1354.044311523438	50.34170150756836	550.6798095703125	1306.757934570312	47.86925888061523	642.2853393554688	1148.493408203125	90.11668395996094	525.1281127929688	1428.982666015625	905.864013671875	319.5819396972656	
